name Walk4.mot
datacolumns 19
datarows 30
range 1.75000000 1.89500000
endheader

                time	   L_ground_force_vx	   L_ground_force_vy	   L_ground_force_vz	   L_ground_force_px	   L_ground_force_py	   L_ground_force_pz	   R_ground_force_vx	   R_ground_force_vy	   R_ground_force_vz	   R_ground_force_px	   R_ground_force_py	   R_ground_force_pz	   L_ground_torque_x	   L_ground_torque_y	   L_ground_torque_z	   R_ground_torque_x	   R_ground_torque_y	   R_ground_torque_z	
          1.75000000	         -1.98455504	        693.43637322	         47.28862032	         -0.20386312	          0.00000000	         -0.09782085	         -0.04643068	          0.59810710	          0.02016368	          0.00015566	          0.00000000	          0.00004936	          0.00000000	          1.50648062	          0.00000000	          0.00000000	         -0.00296990	          0.00000000	
          1.75500000	          0.13896574	        701.47737878	         47.26989569	         -0.20239631	          0.00000000	         -0.09766249	         -0.04935339	          0.61004143	          0.02164459	          0.00012677	          0.00000000	          0.00003568	          0.00000000	          1.57193394	          0.00000000	          0.00000000	         -0.00228213	          0.00000000	
          1.76000000	          2.49945885	        709.62893923	         47.22087338	         -0.20103009	          0.00000000	         -0.09747236	         -0.04782436	          0.55341634	          0.02128451	          0.00006608	          0.00000000	          0.00000996	          0.00000000	          1.62950673	          0.00000000	          0.00000000	         -0.00092819	          0.00000000	
          1.76500000	          5.10232743	        717.81155383	         47.14105148	         -0.19975553	          0.00000000	         -0.09725376	         -0.03954192	          0.39686455	          0.01809802	         -0.00003670	          0.00000000	         -0.00003139	          0.00000000	          1.67968555	          0.00000000	          0.00000000	          0.00129759	          0.00000000	
          1.77000000	          7.95120199	        725.94455782	         47.02990319	         -0.19856385	          0.00000000	         -0.09701117	         -0.02174982	          0.10379633	          0.01089709	         -0.00019245	          0.00000000	         -0.00009200	          0.00000000	          1.72261618	          0.00000000	          0.00000000	          0.00460840	          0.00000000	
          1.77500000	         11.04714559	        733.94584318	         46.88639885	         -0.19744683	          0.00000000	         -0.09674861	          0.00867717	         -0.36600931	         -0.00167582	         -0.00041159	          0.00000000	         -0.00017516	          0.00000000	          1.75795535	          0.00000000	          0.00000000	          0.00920286	          0.00000000	
          1.78000000	         14.38937534	        741.73343610	         46.70862310	         -0.19639684	          0.00000000	         -0.09646925	          0.05505428	         -1.05347547	         -0.02107508	         -0.00070255	          0.00000000	         -0.00028324	          0.00000000	          1.78487226	          0.00000000	          0.00000000	          0.01523240	          0.00000000	
          1.78500000	         17.97476590	        749.22604298	         46.49332524	         -0.19540721	          0.00000000	         -0.09617486	          0.12058405	         -1.99557315	         -0.04872675	         -0.00106962	          0.00000000	         -0.00041685	          0.00000000	          1.80235739	          0.00000000	          0.00000000	          0.02275615	          0.00000000	
          1.79000000	         21.79765770	        756.34065843	         46.23640935	         -0.19447174	          0.00000000	         -0.09586523	          0.20789845	         -3.21855094	         -0.08583682	         -0.00151012	          0.00000000	         -0.00057378	          0.00000000	          1.80944630	          0.00000000	          0.00000000	          0.03168207	          0.00000000	
          1.79500000	         25.84988921	        762.99334706	         45.93402875	         -0.19358449	          0.00000000	         -0.09553953	          0.31841503	         -4.72869999	         -0.13311942	         -0.00201077	          0.00000000	         -0.00074773	          0.00000000	          1.80570268	          0.00000000	          0.00000000	          0.04169369	          0.00000000	
          1.80000000	         30.12241672	        769.10204377	         45.58293915	         -0.19274035	          0.00000000	         -0.09519732	          0.45148284	         -6.50041429	         -0.19043358	         -0.00254351	          0.00000000	         -0.00092678	          0.00000000	          1.79144811	          0.00000000	          0.00000000	          0.05216359	          0.00000000	
          1.80500000	         34.60674157	        774.58718443	         45.18088412	         -0.19193445	          0.00000000	         -0.09483934	          0.60330556	         -8.46150601	         -0.25632232	         -0.00306055	          0.00000000	         -0.00109168	          0.00000000	          1.76737890	          0.00000000	          0.00000000	          0.06205691	          0.00000000	
          1.81000000	         39.29439268	        779.36870565	         44.72494414	         -0.19116148	          0.00000000	         -0.09446669	          0.76565032	        -10.47605134	         -0.32745614	         -0.00348937	          0.00000000	         -0.00121418	          0.00000000	          1.73427557	          0.00000000	          0.00000000	          0.06983099	          0.00000000	
          1.81500000	         44.17698057	        783.36170030	         44.21053692	         -0.19041618	          0.00000000	         -0.09408087	          0.92438126	        -12.32550116	         -0.39799623	         -0.00372772	          0.00000000	         -0.00125547	          0.00000000	          1.69315207	          0.00000000	          0.00000000	          0.07334161	          0.00000000	
          1.82000000	         49.24853083	        786.46660129	         43.63123400	         -0.18969305	          0.00000000	         -0.09368465	          1.05790090	        -13.68941530	         -0.45891092	         -0.00363966	          0.00000000	         -0.00116503	          0.00000000	          1.64496483	          0.00000000	          0.00000000	          0.06977092	          0.00000000	
          1.82500000	         54.50574075	        788.56652980	         42.97820585	         -0.18898711	          0.00000000	         -0.09327947	          1.13563984	        -14.12798601	         -0.49730344	         -0.00305348	          0.00000000	         -0.00088030	          0.00000000	          1.59036328	          0.00000000	          0.00000000	          0.05559815	          0.00000000	
          1.83000000	         59.94421873	        789.52874763	         42.24065212	         -0.18829494	          0.00000000	         -0.09286397	          1.11680807	        -13.06950690	         -0.49584048	         -0.00176282	          0.00000000	         -0.00032775	          0.00000000	          1.52982141	          0.00000000	          0.00000000	          0.02664060	          0.00000000	
          1.83500000	         65.55496686	        789.19919707	         41.40619166	         -0.18761501	          0.00000000	         -0.09243674	          0.94970840	         -9.80709885	         -0.43240812	          0.00046721	          0.00000000	          0.00057431	          0.00000000	          1.46363715	          0.00000000	          0.00000000	         -0.02180074	          0.00000000	
          1.84000000	         71.32167199	        787.39808258	         40.45989150	         -0.18694643	          0.00000000	         -0.09199652	          0.57201085	         -3.51027526	         -0.28016491	          0.00388706	          0.00000000	          0.00191015	          0.00000000	          1.39183104	          0.00000000	          0.00000000	         -0.09465055	          0.00000000	
          1.84500000	         77.21598431	        783.91892732	         39.38454902	         -0.18628902	          0.00000000	         -0.09154126	         -0.08750805	          6.74177920	         -0.00820775	          0.00874052	          0.00000000	          0.00375764	          0.00000000	          1.31450694	          0.00000000	          0.00000000	         -0.19657799	          0.00000000	
          1.85000000	         83.19188650	        778.52156048	         38.16145541	         -0.18564347	          0.00000000	         -0.09106867	         -1.10515623	         21.89717423	          0.41688899	          0.01523095	          0.00000000	          0.00617516	          0.00000000	          1.23196076	          0.00000000	          0.00000000	         -0.33127798	          0.00000000	
          1.85500000	         89.18053728	        770.92979377	         36.77100251	         -0.18501137	          0.00000000	         -0.09057680	         -2.55575937	         42.82965327	          1.02836209	          0.02347359	          0.00000000	          0.00918342	          0.00000000	          1.14491950	          0.00000000	          0.00000000	         -0.50047054	          0.00000000	
          1.86000000	         95.08522434	        760.83632556	         35.19316716	         -0.18439439	          0.00000000	         -0.09006486	         -4.50260357	         70.18923746	          1.85505491	          0.03343206	          0.00000000	          0.01274187	          0.00000000	          1.05483856	          0.00000000	          0.00000000	         -0.70258392	          0.00000000	
          1.86500000	        100.77746959	        747.90739999	         33.40812315	         -0.18379224	          0.00000000	         -0.08953428	         -6.98317546	        104.19691402	          2.91540257	          0.04483797	          0.00000000	          0.01671942	          0.00000000	          0.96372813	          0.00000000	          0.00000000	         -0.93110709	          0.00000000	
          1.87000000	        106.09708016	        731.79548131	         31.39719407	         -0.18320136	          0.00000000	         -0.08898921	         -9.99030726	        144.37791304	          4.20929759	          0.05709675	          0.00000000	          0.02086146	          0.00000000	          0.87405638	          0.00000000	          0.00000000	         -1.17260218	          0.00000000	
          1.87500000	        110.85868856	        712.16455729	         29.14486061	         -0.18261379	          0.00000000	         -0.08843630	        -13.46425992	        189.29389099	          5.70348231	          0.06932412	          0.00000000	          0.02482779	          0.00000000	          0.78837774	          0.00000000	          0.00000000	         -1.40236405	          0.00000000	
          1.88000000	        114.86051308	        688.72203180	         26.64206261	         -0.18201542	          0.00000000	         -0.08788361	        -17.35311329	        236.73334488	          7.28668069	          0.08076690	          0.00000000	          0.02837401	          0.00000000	          0.70894365	          0.00000000	          0.00000000	         -1.57250842	          0.00000000	
          1.88500000	        117.88967940	        661.25811363	         23.89069989	         -0.18138294	          0.00000000	         -0.08734183	        -21.66438371	        284.59423995	          8.72406893	          0.09100295	          0.00000000	          0.03139067	          0.00000000	          0.63702603	          0.00000000	          0.00000000	         -1.61171371	          0.00000000	
          1.89000000	        119.72515133	        629.69199817	         20.91010614	         -0.18068101	          0.00000000	         -0.08682599	        -26.41426934	        331.49597570	          9.71115080	          0.09987914	          0.00000000	          0.03386408	          0.00000000	          0.57271811	          0.00000000	          0.00000000	         -1.44965967	          0.00000000	
          1.89500000	        120.15334927	        594.10531061	         17.74246449	         -0.17985768	          0.00000000	         -0.08635312	        -31.56567035	        376.77887362	          9.98167717	          0.10742224	          0.00000000	          0.03583793	          0.00000000	          0.51561488	          0.00000000	          0.00000000	         -1.04218572	          0.00000000	
